<svg id="Ebene_1" data-name="Ebene 1" xmlns="http://www.w3.org/2000/svg" viewBox="0 0 1000 1000"><defs><style>.cls-1{fill:#00dfed;}</style></defs><circle class="cls-1" cx="500" cy="500.97" r="500"/><path d="M745.12,155.44H601.93a105,105,0,0,0-197.07,0H261.67a70.23,70.23,0,0,0-70,70v551.7a70.23,70.23,0,0,0,70,70H745.12a70.23,70.23,0,0,0,70-70V225.46A70.23,70.23,0,0,0,745.12,155.44Zm-240.59.26A35.5,35.5,0,1,1,469,191.2,35.5,35.5,0,0,1,504.53,155.7Zm242.34,144V768.27a12,12,0,0,1-12,12H272.61a12,12,0,0,1-12-12v-531a12,12,0,0,1,12-12h42.2a12,12,0,0,1,12,12v43a12,12,0,0,0,12,12H668.66a12,12,0,0,0,12-12v-43a12,12,0,0,1,12-12h42.21a12,12,0,0,1,12,12Z"/><rect x="538.68" y="397.94" width="140" height="70" rx="8"/><rect x="538.66" y="606.82" width="140" height="70" rx="8"/><rect x="329.43" y="571.83" width="140" height="139.99" rx="8"/><path d="M461.43,363.54h-124a8,8,0,0,0-8,8v124a8,8,0,0,0,8,8h124a8,8,0,0,0,8-8v-124A8,8,0,0,0,461.43,363.54Zm-25.23,96.4a8,8,0,0,1-8,8h-54a8,8,0,0,1-8-8v-54a8,8,0,0,1,8-8h54a8,8,0,0,1,8,8Z"/></svg>